<svg width="76.608536" height="14.273438" viewBox="0 0 76.6085 14.2734" fill="none" xmlns="http://www.w3.org/2000/svg" xmlns:xlink="http://www.w3.org/1999/xlink">
	<desc>
			Created with Pixso.
	</desc>
	<path id="Instance" d="M1.50273 14.1346Q1.65434 14.2031 1.83691 14.2031Q1.99898 14.2031 2.13602 14.1446Q2.71613 13.8966 2.84766 12.5991Q2.93555 11.54 3.20361 7.12793Q3.4585 2.84326 3.56396 1.65674Q3.59126 1.32916 3.49013 1.04773Q3.37961 0.740206 3.11572 0.487793Q2.92857 0.30715 2.70706 0.193403Q2.33043 0 1.85449 0Q1.35616 0 0.961807 0.202503Q0.74411 0.314293 0.558105 0.487793Q0.235046 0.767611 0.124023 1.11516Q0.0432434 1.36802 0.074707 1.65674Q0.180176 2.86084 0.435059 7.12793Q0.703125 11.54 0.79541 12.5991Q0.920914 13.8716 1.50273 14.1346ZM27.9055 14.0384Q27.9582 14.0384 28.011 14.0229Q28.1203 14.0229 28.2135 13.9841Q28.2289 13.9777 28.2439 13.9702Q28.6789 13.8955 29.9006 13.7725Q31.1047 13.6626 31.2849 13.6274Q31.6911 13.4542 31.8212 13.1592Q31.8826 13.0202 31.8826 12.854Q31.8826 12.6368 31.7921 12.4682Q31.65 12.2036 31.2849 12.0586Q31.197 12.041 28.9118 11.8081L29.1975 6.12158Q30.8542 6.0293 31.2497 5.97656Q31.8376 5.79955 31.9786 5.44485Q32.0232 5.33285 32.0232 5.20312Q32.0232 5.05395 31.9679 4.92926Q31.8164 4.58746 31.2497 4.42969Q30.8718 4.37256 29.2898 4.28467Q29.3777 2.16211 29.4524 1.51172Q29.4759 1.26231 29.403 1.04538Q29.3127 0.776869 29.0744 0.558105Q28.9344 0.430832 28.7726 0.344513Q28.4315 0.162598 27.9934 0.162598Q27.5145 0.162598 27.1485 0.365913Q27.004 0.446169 26.8772 0.558105Q26.5936 0.796629 26.5018 1.09429Q26.4414 1.2902 26.4641 1.51172Q26.4993 1.88965 26.6443 4.10449L25.7434 4.01221Q25.5897 3.98361 25.4564 4.02333Q25.2618 4.08128 25.1106 4.28467Q24.8601 4.60986 24.8601 5.20312Q24.8601 5.79639 25.1106 6.13916Q25.2889 6.36355 25.505 6.40903Q25.6189 6.43303 25.7434 6.40723Q26.0115 6.35449 26.7497 6.30176Q27.0222 11.9883 27.0925 12.709Q27.1848 13.7329 27.6506 13.9482Q27.7781 14.0384 27.9055 14.0384ZM76.159 4.19176Q75.9945 3.84846 75.2946 3.76172L75.1715 3.72656Q74.7936 3.67383 72.2887 3.54639Q69.5729 3.38379 68.8522 3.33105Q68.6369 3.2959 68.4918 3.2959L68.4743 3.2959Q68.2589 3.25635 68.1315 3.33105Q67.649 3.41799 67.3643 3.7027Q67.3612 3.70583 67.358 3.70898Q67.1589 3.91953 67.1126 4.15955Q67.0874 4.29025 67.1076 4.42969Q67.1954 5.07568 67.3756 8.60449Q67.5382 12.2036 67.6261 12.9419L67.6261 13.0342Q67.6261 13.5923 67.8986 13.9307Q68.056 14.132 68.2574 14.1969Q68.3989 14.2425 68.5621 14.2207Q69.0675 14.1504 72.2008 13.9702Q75.3869 13.8076 75.7648 13.7505Q76.4165 13.6113 76.5648 13.2598Q76.6085 13.1562 76.6085 13.0342Q76.6085 12.8751 76.5441 12.749Q76.3754 12.4184 75.7648 12.3135Q75.3869 12.2783 72.9918 12.1509L69.3927 11.9355Q69.4454 11.2148 69.4982 10.1338Q70.3112 10.0635 72.5963 9.93604Q74.6662 9.82617 74.9913 9.79102Q75.5618 9.64391 75.7163 9.30638Q75.7511 9.23051 75.7648 9.14502Q75.7558 9.16306 75.7537 9.1623Q75.7477 9.16008 75.7999 9Q75.8703 8.65723 75.9977 6.82031Q76.1427 4.89551 76.1954 4.57031Q76.2361 4.3528 76.159 4.19176ZM21.0626 7.84863Q18.9752 6.64453 18.6676 6.44238L18.65 6.4248L18.7203 5.47119Q20.7198 5.34814 21.5636 5.27344Q21.7833 6.60498 21.8009 6.66211Q21.8897 6.90292 22.0619 7.03556Q22.273 7.19824 22.6095 7.19824Q22.9949 7.19824 23.2144 7.00744Q23.363 6.87841 23.4357 6.66211Q23.5104 6.48193 23.6158 5.5459Q23.7433 4.59229 23.796 4.37256Q23.8257 4.25887 23.7977 4.1619Q23.7553 4.01521 23.5807 3.90674Q23.2731 3.70898 22.6974 3.69141L20.5045 3.54639L17.5865 3.31348Q17.4809 3.30317 17.3812 3.32309Q17.311 3.33714 17.2438 3.36621Q16.5227 3.46834 16.3813 3.81018Q16.322 3.95377 16.3649 4.13965Q16.4352 4.46484 16.5802 5.94141Q16.7032 7.40039 16.7955 7.70361Q16.8658 7.91895 16.923 8.01123Q16.9948 8.15708 17.1055 8.26169Q17.2117 8.36195 17.3536 8.42432L21.4405 10.1162L21.7086 12.2212L18.4698 12.0059Q18.5226 11.2676 18.6149 10.9248Q18.6382 10.8242 18.618 10.7333Q18.5773 10.5501 18.36 10.4062Q18.0172 10.1865 17.3888 10.1865Q16.7604 10.1865 16.4176 10.4062Q16.2083 10.527 16.1612 10.6936Q16.1311 10.7998 16.1671 10.9248Q16.2374 11.1797 16.3649 12.2959Q16.4879 13.3945 16.5626 13.6099Q16.6857 13.9878 16.923 14.1108Q17.0078 14.1665 17.1005 14.1886Q17.1616 14.2031 17.2262 14.2031L17.3888 14.2031Q17.6788 14.2031 17.8194 14.1284Q18.505 14.0581 20.5572 13.9307Q22.4645 13.8076 22.7545 13.7725Q22.9698 13.6978 23.0401 13.6626Q23.1847 13.6138 23.2901 13.5207Q23.4601 13.3704 23.5279 13.1045Q23.5983 12.854 23.7081 11.7729Q23.8312 10.4766 23.8707 10.2261Q23.9234 10.1162 23.9234 10.0063Q23.9234 9.97413 23.9196 9.94239Q23.8998 9.77924 23.7784 9.62842Q23.5983 9.41309 23.3829 9.25049Q23.005 8.94727 21.0626 7.84863ZM65.1693 4.20254Q65.0471 3.89442 64.3498 3.81445L64.2971 3.79688Q63.884 3.74414 61.3088 3.59912Q58.5007 3.4585 57.8898 3.40137Q57.7097 3.36621 57.5998 3.36621Q57.4196 3.33105 57.3141 3.38379Q56.7736 3.4585 56.4484 3.76172Q56.2496 3.96323 56.1943 4.1985Q56.1603 4.34289 56.1804 4.5Q56.2682 5.15039 56.4484 8.80225Q56.6286 12.4365 56.7209 13.0693L56.7209 13.1045Q56.756 13.6099 57.0065 13.8955Q57.184 14.0959 57.3914 14.1341Q57.5023 14.1545 57.6218 14.1284Q58.0876 14.0581 60.9836 13.8955Q63.9016 13.7329 64.2795 13.6802Q64.6108 13.6802 64.8034 13.5167Q64.8407 13.485 64.8727 13.4473Q64.9317 13.4028 64.9745 13.3461Q65.0881 13.1956 65.0881 12.9595L65.2331 11.7729Q65.3078 11.0522 65.3605 10.8545Q65.3875 10.7434 65.3622 10.6458Q65.3214 10.4887 65.1452 10.3667Q64.8376 10.1689 64.2443 10.1689Q63.6511 10.1689 63.3259 10.3667Q63.1345 10.4897 63.0979 10.6484Q63.0757 10.7449 63.1105 10.8545Q63.1984 11.1621 63.3083 12.1685L60.8781 12.0234Q59.1335 11.9355 58.4655 11.8784L58.8083 5.63379L63.0754 5.3833Q63.2336 6.66211 63.2907 6.84229Q63.3744 7.08324 63.5436 7.21224Q63.7384 7.36084 64.0466 7.36084Q64.4002 7.36084 64.6095 7.18702Q64.7617 7.06061 64.8376 6.84229Q64.9079 6.66211 65.0178 5.68652Q65.1276 4.6626 65.1804 4.46484Q65.215 4.31774 65.1693 4.20254ZM42.8565 4.21448Q42.4472 3.88916 41.7794 3.88916L37.8199 3.65625Q34.9195 3.51123 34.4537 3.4585Q34.3044 3.43693 34.1702 3.47234Q33.9487 3.53074 33.7681 3.74414Q33.7645 3.74858 33.7608 3.75305Q33.4825 4.09436 33.4825 4.6626Q33.4825 5.2203 33.7506 5.57591Q33.7592 5.58738 33.7681 5.59863Q33.9508 5.82553 34.1752 5.87994Q34.3072 5.91194 34.4537 5.88428Q34.9591 5.81396 40.3555 5.52832Q40.4303 6.17432 40.5181 7.75635Q35.362 7.42016 35.1367 7.41433Q34.9363 7.37842 34.8316 7.37842L34.814 7.37842Q34.7486 7.35749 34.6848 7.36148Q34.6414 7.36419 34.5987 7.37842Q34.023 7.41797 33.6978 7.68604Q33.4838 7.84243 33.4308 8.04165Q33.399 8.16151 33.4254 8.29688Q33.5177 8.73193 33.6451 10.4766Q33.7857 12.4761 33.8428 12.9419Q33.8428 13.3358 34.006 13.6432Q34.0303 13.689 34.0582 13.7329Q34.0933 13.8076 34.2032 13.9131Q34.3579 14.0597 34.5344 14.0939Q34.6437 14.1151 34.7613 14.0933Q34.8492 14.0933 34.9942 14.0581Q35.7325 13.9878 38.5933 13.8252Q41.419 13.6802 41.7618 13.645L41.8497 13.6274Q42.1221 13.5923 42.3023 13.4473Q42.4247 13.3711 42.4876 13.261Q42.5445 13.1614 42.5528 13.0342Q42.6627 12.7441 42.6803 12.5464Q42.7681 11.9004 42.9483 8.81982Q43.1285 5.72607 43.2208 5.05811Q43.2436 4.84721 43.1826 4.66424Q43.1025 4.42401 42.878 4.23193Q42.8674 4.22309 42.8565 4.21448ZM13.7186 3.99463Q13.4462 3.87158 13.0507 3.87158L7.54433 3.52881Q7.34657 3.4585 7.02138 3.4585L6.8412 3.4585Q6.77089 3.4585 6.62587 3.49365Q6.24112 3.56625 5.98828 3.78875Q5.935 3.83562 5.88759 3.88916Q5.71155 4.07603 5.66403 4.29127Q5.63445 4.42529 5.65468 4.57031Q5.74257 5.20312 5.92274 8.81982Q6.10292 12.4014 6.19521 13.0122Q6.28317 13.7599 6.66756 13.9731Q6.82089 14.0581 7.02138 14.0581Q7.20883 14.0581 7.35422 13.9799Q7.74057 13.7721 7.82997 13.0122Q7.90468 12.4365 8.0497 9.80859L8.28261 5.7085Q9.48671 5.61621 11.7543 5.50635Q11.8114 6.13916 11.9916 9.54053Q12.1322 12.3838 12.2245 12.9771Q12.3291 13.7058 12.7124 13.9091Q12.8607 13.9878 13.0507 13.9878Q13.2474 13.9878 13.3982 13.9045Q13.7728 13.6977 13.8637 12.9771Q13.9516 12.4014 14.1317 9Q14.3119 5.56348 14.3822 4.97021Q14.4052 4.78843 14.3579 4.6272Q14.2876 4.38697 14.0614 4.19238Q13.9516 4.08691 13.7186 3.99463ZM53.3364 3.99463Q53.0639 3.87158 52.6684 3.87158L47.1621 3.52881Q46.9643 3.4585 46.6391 3.4585L46.459 3.4585Q46.3886 3.4585 46.2436 3.49365Q45.8589 3.56625 45.606 3.78875Q45.5528 3.83562 45.5053 3.88916Q45.3293 4.07603 45.2818 4.29127Q45.2522 4.42529 45.2724 4.57031Q45.3603 5.20312 45.5405 8.81982Q45.7207 12.4014 45.813 13.0122Q45.9009 13.7599 46.2853 13.9731Q46.4386 14.0581 46.6391 14.0581Q46.8266 14.0581 46.972 13.9799Q47.3583 13.7721 47.4477 13.0122Q47.5224 12.4365 47.6674 9.80859L47.9004 5.7085Q49.1045 5.61621 51.372 5.50635Q51.4292 6.13916 51.6093 9.54053Q51.75 12.3838 51.8423 12.9771Q51.9468 13.7058 52.3301 13.9091Q52.4784 13.9878 52.6684 13.9878Q52.8652 13.9878 53.016 13.9045Q53.3905 13.6977 53.4814 12.9771Q53.5693 12.4014 53.7495 9Q53.9297 5.56348 54 4.97021Q54.0229 4.78843 53.9757 4.6272Q53.9053 4.38697 53.6792 4.19238Q53.5693 4.08691 53.3364 3.99463ZM69.608 7.9585L69.7355 5.56348L73.8751 5.30859Q73.9279 5.79639 73.9982 6.78516L74.108 8.24414Q71.0099 8.06396 69.608 7.9585ZM40.6104 9.30762Q40.773 11.7905 40.8082 12.1157L35.7501 11.8257L35.8204 10.7095Q35.8555 9.93604 35.8951 9.59326Q36.7037 9.52295 38.3604 9.43066L40.6104 9.30762Z" fill="#1A2C3FFF"/>
	<defs/>
</svg>
